<?xml version="1.0" encoding="UTF-8"?>
<svg id="Warstwa_1" data-name="Warstwa 1" xmlns="http://www.w3.org/2000/svg" version="1.1" viewBox="0 0 173 156">
  <defs>
    <style>
      .cls-1 {
        fill: #6b531f;
        stroke-width: 0px;
      }
    </style>
  </defs>
  <path class="cls-1" d="M124.7,24.3H29.6v123.9c.8,0,1.7,0,2.6,0,23.2,0,46.4,0,69.6,0,.6,0,1.3-.2,1.7,0,1,.7,2.5,1.5,2.6,2.4.1,1-.8,2.3-1.7,3.1-.5.5-1.8.4-2.7.4-27.6,0-55.3,0-82.9,0-3,0-6.2-.7-8.9-1.9-4.4-2.1-6.2-6.2-6.2-11,0-42.8,0-85.5,0-128.3,0-6.7,5.8-11.8,13.3-11.8,14.4,0,28.9,0,43.3,0,21.8,0,43.7,0,65.5,0,3.7,0,4.8,1.1,4.8,4.7,0,17.5,0,34.9,0,52.4,0,.6.1,1.2,0,1.8-.4,1.6-1.2,2.8-3.1,2.6-1.8-.1-2.7-1.2-2.9-2.9,0-.7,0-1.3,0-2,0-10.2,0-20.5,0-30.7,0-.8,0-1.6,0-2.7ZM9.8,23.4c0-.2,0,.2,0,.6,0,39.3,0,78.6,0,117.9,0,3.1,1.8,5.6,4.9,6,2.8.4,5.8,0,8.6,0V24.6c-4.6-.4-9-.8-13.5-1.2ZM124.6,7c-.4,0-.6,0-.8,0-34.6,0-69.2,0-103.8,0-1.5,0-3,0-4.5.2-3.2.5-5.6,2.7-5.7,5.4-.1,2.5,2,5,4.8,5.6,1,.2,2,.2,3,.2,34.8,0,69.5,0,104.3,0,.9,0,1.8,0,2.7-.1V7Z"/>
  <path class="cls-1" d="M113.4,128.9c.9-3,2-7.6,3.4-12.1,9.2-29.2,18.4-58.3,27.6-87.5,2.3-7.2,8.5-10.1,13.7-9.3,7.3,1.1,11.9,6.6,11.4,13.5-.2,2.5-1.2,5-1.9,7.4-9.6,30.5-19.3,61-29.1,91.5-.9,2.7-2.8,5-4.6,7.3-4,5-8.2,9.9-12.5,14.7-.8.9-2.4,1.4-3.6,1.4-1.8,0-2.1-1.5-2.2-3.1-.6-7.4-1.3-14.8-2.1-23.9ZM133,131.1c8.8-28.1,17.5-55.9,26.3-83.9-4.4-1.5-8.5-3-13-4.5-8.9,28.1-17.6,56-26.5,83.9,4.5,1.5,8.6,2.9,13.1,4.5ZM161,42.1c.9-2.7,1.9-5.1,2.4-7.6.9-4.1-1.4-7.8-4.9-8.7-3.9-.9-7,1-8.4,5.2-.7,2.2-1.3,4.4-2,6.8,4.2,1.4,8.4,2.8,12.9,4.3ZM129.8,135.5c-3.8-1.3-7.1-2.4-10.7-3.6.4,5.1.9,9.7,1.3,14.8,3.3-3.9,6.2-7.4,9.4-11.2Z"/>
  <path class="cls-1" d="M77.2,78.2c-9.2,0-18.3,0-27.5,0-3.4,0-4.2-.7-4.2-4,0-7.9,0-15.8,0-23.7,0-3.2.8-4,4-4,18.4,0,36.8,0,55.2,0,3.4,0,4.3.9,4.3,4.3,0,7.7,0,15.5,0,23.2,0,3.4-.9,4.3-4.3,4.3-9.2,0-18.3,0-27.5,0ZM51.8,52.6v19.5h51v-19.5h-51Z"/>
</svg>