<?xml version="1.0" encoding="UTF-8"?>
<svg id="Warstwa_1" data-name="Warstwa 1" xmlns="http://www.w3.org/2000/svg" version="1.1" viewBox="0 0 188 162">
  <defs>
    <style>
      .cls-1 {
        fill: #6b531f;
        stroke-width: 0px;
      }
    </style>
  </defs>
  <path class="cls-1" d="M74.5,134.7c-6.4,0-12.5,0-18.7,0-13.4,0-26.9-.2-40.3,0-8.1.1-13.2-5-13.1-13.3,0-17.1,0-34.1,0-51.2,0-18.3.1-36.6,0-54.9,0-7.7,4.9-12.3,12.4-12.8.3,0,.7,0,1,0,52.2,0,104.5,0,156.7,0,6.8,0,11.1,3.2,12.6,9.2.2.8.2,1.7.2,2.5,0,36.3,0,72.6,0,108.9,0,6.5-5,11.5-11.6,11.5-19.2,0-38.3,0-57.5,0-.9,0-1.8,0-2.9,0,1.4,6.6,2.7,13,4.1,19.7,4,0,8,0,12,0,2.1,0,3.7.6,3.9,2.9.2,1.9-1.3,3.2-3.9,3.2-23.5,0-47,0-70.6,0-1.3,0-2.9-1-3.8-2-.4-.5.3-2.3.8-3.2.3-.5,1.5-.6,2.2-.7,3.1,0,6.2-.1,9.3,0,1.9,0,2.7-.3,3.1-2.4,1-5.2,2.4-10.3,3.7-15.5.1-.5.1-1,.2-1.7ZM179.7,106.3c0-1,0-1.9,0-2.8,0-13.4,0-26.9,0-40.3,0-15.9,0-31.8,0-47.6,0-4.7-2.1-6.9-6.3-6.9-52.8,0-105.7,0-158.5,0-4.2,0-6.3,2.2-6.3,6.3,0,29.6,0,59.1,0,88.7,0,.9,0,1.8,0,2.7h171.2ZM8.5,112.4c0,3.4,0,6.6,0,9.8,0,4.6,1.9,6.5,6.6,6.5,47.8,0,95.6,0,143.4,0,5.1,0,10.2,0,15.4,0,2.9,0,5.3-1.4,5.5-3.8.3-4.1,0-8.3,0-12.5H8.5ZM80.8,134.7c-1.6,6.7-3.1,13.1-4.6,19.6h35.5c-1.3-6.3-2.6-12.4-4-18.6-.1-.4-1.1-1-1.7-1-8.3,0-16.6,0-25.1,0Z"/>
  <path class="cls-1" d="M164.7,58.3c0,11.1,0,22.2,0,33.2,0,3.4-.9,4.3-4.3,4.3-19.3,0-38.6,0-57.9,0-3.4,0-4.3-.9-4.3-4.3,0-22.1,0-44.2,0-66.2,0-3.8.8-4.6,4.5-4.6,19.1,0,38.3,0,57.4,0,3.8,0,4.5.8,4.5,4.6,0,11,0,22,0,33h0ZM104,89.7h54.6V26.9h-54.6v62.8Z"/>
  <path class="cls-1" d="M57.5,63.6c-9.8,0-19.6,0-29.5,0-3.7,0-4.5-.7-4.5-4.3,0-11.4,0-22.8,0-34.3,0-3.5.8-4.3,4.3-4.3,19.7,0,39.5,0,59.2,0,3.4,0,4.3.9,4.3,4.3,0,11.3,0,22.7,0,34,0,3.7-.9,4.5-4.7,4.5-9.7,0-19.5,0-29.2,0ZM29.8,26.8v30.6h55.7v-30.6H29.8Z"/>
  <path class="cls-1" d="M56.8,89.3c-9.8,0-19.6,0-29.5,0-2,0-3.8,0-3.8-2.8,0-2.2,1-3.1,3.8-3.2,4.8,0,9.6,0,14.4,0,14.6,0,29.2,0,43.8,0,.6,0,1.2,0,1.8,0,1.8.3,3.3,1.3,3.2,3.2,0,1.9-1.5,2.7-3.5,2.7-10.1,0-20.1,0-30.2,0Z"/>
  <path class="cls-1" d="M56.7,76.2c-10,0-20,0-30,0-2.5,0-3.2-.8-3.1-3.1.1-1.9,1.2-2.5,3-2.5,6.2,0,12.4,0,18.6,0,13.9,0,27.9,0,41.8,0,1,0,2.3.8,3,1.6.4.5.4,2.2-.1,2.6-.8.7-2.2,1.3-3.3,1.3-10,0-20,0-30,0,0,0,0,0,0,0Z"/>
  <path class="cls-1" d="M131.3,41.4c-4.9,0-9.7,0-14.6,0-2.2,0-3.6-.7-3.9-3-.2-2,1.3-3.1,3.9-3.1,9.7,0,19.4,0,29.2,0,2.6,0,3.7.9,3.7,3,0,2-1.2,3-3.7,3-4.9,0-9.7,0-14.6,0Z"/>
  <path class="cls-1" d="M131.4,56c-4.9,0-9.9,0-14.8,0-2.1,0-3.5-.7-3.6-2.9-.2-1.9,1.3-3.2,3.6-3.2,9.8,0,19.6,0,29.4,0,2.5,0,3.7,1,3.7,3,0,2-1.2,3-3.7,3-4.9,0-9.7,0-14.6,0Z"/>
  <path class="cls-1" d="M125.8,70.3c-3.2,0-6.4,0-9.6,0-2,0-3.3-.9-3.3-2.9,0-1.9,1.3-2.8,3.4-2.8,6.3,0,12.6,0,18.9,0,2,0,3.2.8,3.3,2.8.1,2.2-1.2,2.9-3.2,2.9-3.2,0-6.4,0-9.6,0Z"/>
</svg>