<?xml version="1.0" encoding="UTF-8"?>
<svg id="Warstwa_1" data-name="Warstwa 1" xmlns="http://www.w3.org/2000/svg" viewBox="0 0 187 170">
  <defs>
    <style>
      .cls-1 {
        fill: #6b531f;
        stroke-width: 0px;
      }
    </style>
  </defs>
  <path class="cls-1" d="M106,49.5c8.9.84,16.86,3.52,24.21,8.11.64.4,1.99.39,2.62-.03,11.99-7.96,25.23-9.61,39.14-7.92,2.31.28,4.65.54,6.9,1.08,4.08.98,6.17,3.78,6.17,7.98,0,25.29,0,50.57,0,75.85,0,1.01,0,2.02.08,3.02.32,3.73-1.2,5.1-4.9,4.36-3.59-.72-7.14-1.77-10.76-2.12-12.39-1.23-24.39-.45-34.74,7.72-1.89,1.49-3.98,1.55-5.96-.08-6.1-5.02-13.39-6.93-21-8-1.36-.19-1.99.27-2.56,1.65-1.86,4.53-5.34,6.9-10.32,6.9-27.3,0-54.6,0-81.9,0-6.92,0-11.42-4.53-11.42-11.51,0-36.29,0-72.58,0-108.87,0-6.68,5.04-11.68,11.78-11.68,27.05,0,54.1,0,81.15,0,6.3,0,11.33,4.94,11.38,11.27.06,6.8.01,13.61.02,20.41,0,.57.06,1.14.11,1.86ZM99.87,82.28h-.01c0-18.05,0-36.11,0-54.16,0-4.16-1.93-6.13-6.08-6.14-26.7-.01-53.41-.01-80.11,0-4.32,0-6.06,1.77-6.06,6.1,0,35.94.05,71.88-.07,107.82-.01,4.09,2.24,6.56,6.4,6.56,26.62.03,53.24.02,79.86.02,3.43,0,6.19-2.36,6.15-6.29-.18-17.97-.08-35.94-.08-53.91ZM134.64,140.39c14.52-8.13,29.49-8.03,44.87-4.69,0-25.78.02-51.38-.08-76.99,0-.81-1.13-2.13-1.96-2.34-2.57-.65-5.24-.96-7.89-1.26-11.71-1.3-22.75.6-32.91,6.86-1.58.97-2.06,2.05-2.06,3.84.05,24.01.04,48.03.04,72.04v2.53ZM106,133.78c8.18.3,15.55,2.53,22.64,6.5,0-25.35.01-50.36-.06-75.37,0-.77-.77-1.92-1.48-2.26-4.42-2.08-8.87-4.12-13.43-5.86-2.39-.91-5.03-1.17-7.67-1.75v78.73Z"/>
  <path class="cls-1" d="M90.28,75.66c0,13.18,0,26.36,0,39.54,0,3.57-.99,4.55-4.64,4.55-21.33,0-42.65.01-63.98.01-3.36,0-4.47-1.14-4.47-4.53,0-26.45,0-52.89,0-79.34,0-3.39.9-4.31,4.3-4.31,21.49,0,42.99,0,64.48,0,3.43,0,4.3.88,4.3,4.28,0,13.27,0,26.53,0,39.8ZM84.64,37.59H22.89v76.19h61.76V37.59Z"/>
  <path class="cls-1" d="M53.74,128.67c2.51,0,5.02,0,7.53,0,1.97,0,3.23.93,3.27,2.95.04,1.94-1.18,2.91-3.01,2.93-5.18.04-10.36,0-15.54-.05-2.03-.02-2.75-1.22-2.67-3.12.07-1.89,1.14-2.67,2.9-2.69,2.51-.02,5.02,0,7.53,0,0,0,0,0,0-.01Z"/>
  <path class="cls-1" d="M156.64,98.11c-3.44,0-6.89.02-10.33,0-2.3-.02-3.73-1.17-3.56-2.95.21-2.13,1.59-2.99,3.63-2.99,6.97,0,13.95-.02,20.92,0,1.98,0,3.22.95,3.19,3.04-.04,2.07-1.24,2.93-3.26,2.91-3.53-.04-7.06-.01-10.59-.01Z"/>
  <path class="cls-1" d="M156.61,80.45c-3.43,0-6.87.12-10.3-.03-3.01-.13-4.43-2.25-3.06-4.42.45-.72,1.51-1.48,2.31-1.49,7.37-.11,14.74-.15,22.1.03.96.02,2.35,1.23,2.72,2.2.58,1.54-.2,3.05-2.02,3.38-1.54.28-3.14.31-4.72.35-2.34.05-4.69.01-7.03.01v-.02Z"/>
  <path class="cls-1" d="M157.08,110.18c3.52,0,7.04.05,10.56-.02,1.9-.04,2.81.85,2.86,2.67.05,1.78-.76,2.95-2.63,2.97-7.46.05-14.92.15-22.36-.08-.95-.03-2.46-1.78-2.63-2.9-.25-1.58,1.05-2.67,2.9-2.65,3.77.02,7.54,0,11.31,0h0Z"/>
  <path class="cls-1" d="M53.73,54.26c-5.96,0-11.91,0-17.87,0-2.7,0-4.01-1.04-3.96-3.07.05-2.03,1.31-2.96,4.06-2.96,11.91,0,23.83,0,35.74,0,2.69,0,3.99,1.03,3.96,3.07-.03,2.04-1.28,2.96-4.05,2.97-5.96,0-11.91,0-17.87,0Z"/>
  <path class="cls-1" d="M53.73,62.83c6.13,0,12.26.02,18.4-.01,2.04-.01,3.45.65,3.53,2.92.08,2.03-1.16,3.11-3.64,3.11-12.18.02-24.36.02-36.54,0-2.42,0-3.73-1.16-3.56-3.19.19-2.19,1.6-2.87,3.66-2.85,6.05.06,12.1.02,18.14.02Z"/>
  <path class="cls-1" d="M47.3,77.45c4.03,0,8.06.02,12.09,0,1.84-.01,3.09.57,3.18,2.65.09,2.12-1.09,3.25-2.99,3.27-8.06.09-16.12.07-24.19,0-2-.02-3.47-1.16-3.4-3.25.08-2.2,1.66-2.76,3.72-2.71,3.86.1,7.73.03,11.59.03Z"/>
</svg>