<?xml version="1.0" encoding="UTF-8"?>
<svg id="Warstwa_1" data-name="Warstwa 1" xmlns="http://www.w3.org/2000/svg" viewBox="0 0 169 170">
  <defs>
    <style>
      .cls-1 {
        fill: #6b531f;
        stroke-width: 0px;
      }
    </style>
  </defs>
  <path class="cls-1" d="M59.47,41.87c4.94-8.71,9.61-17.16,14.51-25.48,3.7-6.27,9.49-7.82,15.85-4.21,10.31,5.84,20.52,11.85,30.73,17.87,5.96,3.51,7.69,9.4,4.29,15.46-4.29,7.64-8.89,15.09-13.35,22.63-.88,1.48-1.75,2.96-2.29,4.83,3.67-2.17,7.34-4.33,11.01-6.51,4.23-2.52,8.46-5.04,12.68-7.57,6.56-3.94,13.49-2.17,17.2,4.64,5.27,9.67,11.01,19.08,16.49,28.64,1.87,3.25,3.74,6.51,2.4,10.59-1.01,3.08-3.08,5.03-5.74,6.62-15.84,9.45-31.66,18.93-47.49,28.4-16.41,9.81-32.82,19.61-49.24,29.4-7.83,4.67-16.12,3.7-22.61-2.79-2.18-2.18-4.01-4.72-6.16-6.94-.58-.6-1.72-.86-2.62-.9-2.17-.09-4.36.12-6.53.07-5.69-.11-11.45.17-17.07-.57-7.02-.92-11.95-7.24-11.95-14.3-.02-42.58-.02-85.16,0-127.74C-.41,5.69,4.97.38,13.3.37c10.92-.02,21.84-.01,32.75,0,8.18,0,13.37,5.13,13.41,13.29.04,9.3,0,18.61,0,28.22ZM5.56,105.47c0,11.87.2,23.53-.08,35.19-.15,6.47,4.99,10.19,10.22,10.09,9.06-.18,18.13,0,27.2-.07,7.12-.05,10.59-3.62,10.6-10.7,0-10.66,0-21.33,0-31.99,0-.81-.08-1.62-.13-2.52H5.56ZM53.5,36.66c0-8.1.01-15.98,0-23.85,0-4.31-2.17-6.4-6.55-6.4-11.43,0-22.85.13-34.28-.07-4.61-.08-7.06,2.24-7.07,6.99-.02,7.14-.02,14.28-.02,21.42,0,.64.12,1.27.19,1.9h47.74ZM107.75,62.95c1.72-2.84,3.33-5.47,4.9-8.13,2.41-4.1,4.88-8.17,7.14-12.35,1.56-2.89,1.04-5.45-1.3-6.83-10.64-6.27-21.3-12.5-32.01-18.65-2.95-1.69-5.38-1.11-7.08,1.72-4.06,6.78-7.94,13.68-11.94,20.61,13.46,7.89,26.77,15.69,40.29,23.62ZM117.05,75.01c8.19,13.76,16.23,27.26,24.25,40.74,6.43-3.88,12.66-7.61,18.85-11.4,3.77-2.31,4.27-4.23,2.05-8.07-5.93-10.24-11.9-20.45-17.89-30.66-1.98-3.38-4.08-4.05-7.5-2.13-6.6,3.73-13.11,7.62-19.77,11.51ZM53.34,69.16v-26.39H5.77v26.39h47.57ZM112.19,78.38c-7.03,2.99-9.5,5.13-13.04,11.18-1.6,2.73-3.07,5.56-4.86,8.16-.94,1.38-.73,2.28.06,3.53,5.78,9.17,11.5,18.38,17.25,27.57.69,1.1,1.43,2.17,2.21,3.36,7.58-4.53,14.93-8.92,22.43-13.41-8.09-13.59-16.07-27.01-24.04-40.39ZM53.33,99.59v-24.49H5.73v24.49h47.59ZM64.76,44.44c-1.81,3.02-3.51,5.79-5.11,8.6-.26.46-.16,1.15-.16,1.73-.01,5.29-.08,10.59.06,15.88.02.84.73,2,1.47,2.44,5.93,3.58,11.95,7.02,17.93,10.52,4.15,2.42,8.29,4.86,12.53,7.35,4.54-7.75,8.95-15.28,13.47-23.01-13.33-7.8-26.57-15.55-40.18-23.51ZM90.06,105.53c-4.87,7.91-9.57,15.53-14.23,23.18-.24.39-.31,1.14-.09,1.51,3.53,6.09,7.13,12.15,10.74,18.28,7.47-4.47,14.76-8.83,22.31-13.35-6.29-9.95-12.49-19.75-18.73-29.63ZM59.47,79.01c0,8.98-.03,17.71.05,26.45,0,.77.44,1.88,1.03,2.23,5.21,3.11,10.5,6.08,15.92,9.19,4.04-7.02,8.01-13.93,12-20.88-9.76-5.72-19.25-11.28-29-17ZM45.6,157.66c5.42,6.8,12.7,8.91,19.77,3.54,1.59-1.2,3.39-2.13,5.1-3.17,3.62-2.2,7.24-4.39,10.98-6.66-3.23-5.41-6.34-10.61-9.56-15.99-2.37,4.01-4.63,7.8-6.86,11.6-2.67,4.56-6.54,7.47-11.69,8.69-2.46.59-4.91,1.26-7.74,1.99ZM59.1,145.33c4.65-7.8,9.32-15.64,14.08-23.61-4.56-2.66-9.05-5.28-14.08-8.22v31.83Z"/>
  <path class="cls-1" d="M24.92,144.02c-5.58-.02-10.05-4.42-10.16-9.99-.11-5.84,4.63-10.55,10.52-10.45,5.58.09,10.09,4.74,10.06,10.36-.03,5.9-4.38,10.1-10.43,10.08ZM20.69,133.9c.02,2.37,2.15,4.59,4.38,4.57,2.16-.02,4.59-2.6,4.58-4.85-.02-2.31-2.18-4.27-4.66-4.22-2.45.05-4.32,2-4.29,4.51Z"/>
  <path class="cls-1" d="M23.26,22.19c-.02,2.95-2.08,4.95-5.06,4.9-2.75-.05-4.98-2.2-5.02-4.83-.04-2.73,2.54-5.23,5.33-5.18,2.58.05,4.77,2.41,4.75,5.11Z"/>
</svg>